<svg width="15" height="15" viewBox="0 0 15 15" fill="none" xmlns="http://www.w3.org/2000/svg">
<g clip-path="url(#clip0)">
<path d="M9.569 5.43452C9.37497 5.43452 9.21771 5.59178 9.21771 5.78581V12.4252C9.21771 12.619 9.37497 12.7764 9.569 12.7764C9.76303 12.7764 9.92029 12.619 9.92029 12.4252V5.78581C9.92029 5.59178 9.76303 5.43452 9.569 5.43452Z" fill="#FF0000"/>
<path d="M5.42386 5.43452C5.22983 5.43452 5.07257 5.59178 5.07257 5.78581V12.4252C5.07257 12.619 5.22983 12.7764 5.42386 12.7764C5.61789 12.7764 5.77515 12.619 5.77515 12.4252V5.78581C5.77515 5.59178 5.61789 5.43452 5.42386 5.43452Z" fill="#FF0000"/>
<path d="M2.4028 4.4656V13.1206C2.4028 13.6321 2.59038 14.1125 2.91807 14.4572C3.24424 14.8029 3.69817 14.9991 4.17323 15H10.8197C11.2949 14.9991 11.7488 14.8029 12.0749 14.4572C12.4025 14.1125 12.5901 13.6321 12.5901 13.1206V4.4656C13.2415 4.2927 13.6636 3.6634 13.5765 2.99499C13.4892 2.32673 12.9199 1.82683 12.2458 1.82669H10.4473V1.38758C10.4493 1.01832 10.3033 0.663739 10.0419 0.402881C9.78051 0.14216 9.42539 -0.0030204 9.05612 -1.52749e-06H5.9368C5.56754 -0.0030204 5.21241 0.14216 4.95101 0.402881C4.6896 0.663739 4.5436 1.01832 4.54565 1.38758V1.82669H2.74709C2.07306 1.82683 1.50373 2.32673 1.41645 2.99499C1.32932 3.6634 1.75141 4.2927 2.4028 4.4656ZM10.8197 14.2974H4.17323C3.57262 14.2974 3.10538 13.7814 3.10538 13.1206V4.49647H11.8876V13.1206C11.8876 13.7814 11.4203 14.2974 10.8197 14.2974ZM5.24823 1.38758C5.24589 1.20467 5.3178 1.02861 5.44761 0.899485C5.57728 0.77036 5.75375 0.699416 5.9368 0.702572H9.05612C9.23918 0.699416 9.41564 0.77036 9.54532 0.899485C9.67513 1.02847 9.74703 1.20467 9.7447 1.38758V1.82669H5.24823V1.38758ZM2.74709 2.52926H12.2458C12.5951 2.52926 12.8782 2.81235 12.8782 3.16158C12.8782 3.51081 12.5951 3.7939 12.2458 3.7939H2.74709C2.39786 3.7939 2.11477 3.51081 2.11477 3.16158C2.11477 2.81235 2.39786 2.52926 2.74709 2.52926Z" fill="#FF0000"/>
<path d="M7.49643 5.43452C7.3024 5.43452 7.14514 5.59178 7.14514 5.78581V12.4252C7.14514 12.619 7.3024 12.7764 7.49643 12.7764C7.69046 12.7764 7.84772 12.619 7.84772 12.4252V5.78581C7.84772 5.59178 7.69046 5.43452 7.49643 5.43452Z" fill="#FF0000"/>
</g>
<defs>
<clipPath id="clip0">
<rect width="15" height="15" fill="white"/>
</clipPath>
</defs>
</svg>