<svg width="98" height="78" viewBox="0 0 98 78" fill="none" xmlns="http://www.w3.org/2000/svg">
<g clip-path="url(#clip0)">
<path d="M56.359 17.8366C51.6013 17.0692 46.8535 18.085 42.8319 20.7024C44.0316 18.0666 45.9089 15.6828 48.4477 13.5812C51.472 11.0777 54.3416 9.93684 54.365 9.92762C55.5527 9.46849 56.1432 8.13339 55.6841 6.9457C55.2251 5.75815 53.8905 5.16733 52.7022 5.62661C52.3388 5.76706 46.6272 8.03809 42.1162 13.34C41.9471 12.5054 41.711 11.6654 41.3914 10.8326C38.7073 3.84053 31.3336 0.358399 31.0211 0.213562C30.4554 -0.0484745 29.8076 -0.0702227 29.2255 0.152999C28.6436 0.376522 28.1768 0.826137 27.9318 1.39929C27.7963 1.7163 24.6468 9.23787 27.3309 16.2299C27.5728 16.86 27.8531 17.4611 28.1626 18.0343C25.8309 17.5187 23.4009 17.4439 20.9683 17.8364C10.3008 19.5577 2.97979 29.8538 4.64867 40.789C5.83652 48.5726 7.57305 55.2579 9.81071 60.6587C12.3485 66.7848 15.5538 71.2888 19.3375 74.0461C22.3335 76.2292 25.6708 77.3275 29.2924 77.3272C30.2942 77.3272 31.3184 77.2431 32.3624 77.0747C34.7718 76.6861 36.8824 75.8029 38.6637 74.4418C40.4449 75.8029 42.5557 76.6863 44.9649 77.0747C49.7823 77.8519 54.1649 76.8331 57.9897 74.0461C61.7734 71.2889 64.9789 66.7849 67.5165 60.6587C69.7541 55.2576 71.4907 48.5724 72.6785 40.789C74.3474 29.8538 67.0264 19.5577 56.359 17.8366ZM31.3872 5.76963C33.2959 7.09023 35.8829 9.34948 37.0866 12.485C38.2828 15.6009 37.8687 19.0258 37.3352 21.2929C35.4267 19.9724 32.8397 17.7132 31.636 14.5775C30.4397 11.4618 30.8538 8.03704 31.3872 5.76963ZM68.1203 40.0933C65.7766 55.4514 61.3347 65.9034 55.2742 70.3193C52.4404 72.3842 49.3084 73.105 45.6991 72.5224C43.4871 72.1656 41.7398 71.2645 40.357 69.7674C39.9205 69.2952 39.3066 69.0265 38.6634 69.0265C38.0201 69.0265 37.4062 69.2952 36.9697 69.7674C35.5871 71.2645 33.8396 72.1655 31.6277 72.5224C28.0184 73.1043 24.8865 72.3842 22.0525 70.3193C15.992 65.9034 11.5501 55.4514 9.20644 40.0933C7.918 31.6505 13.5238 23.7083 21.7023 22.3889C22.4871 22.2622 23.272 22.1997 24.051 22.1997C27.2348 22.1997 30.3228 23.2457 32.9336 25.2406C36.307 27.8183 41.0193 27.8183 44.3928 25.2406C47.6427 22.7576 51.6317 21.7445 55.6241 22.3889H55.6243C63.8031 23.7085 69.4087 31.6506 68.1203 40.0933Z" fill="#F93535"/>
<ellipse cx="70.8711" cy="35.5188" rx="6.24866" ry="4.10069" transform="rotate(-18.0827 70.8711 35.5188)" fill="white"/>
</g>
<g clip-path="url(#clip1)">
<path d="M43.4564 41.5515L44.1683 43.1438L56.1164 37.1781L56.9743 39.0919L44.8169 44.5784L45.4527 45.9768L57.7113 40.4394L58.4249 42.0213L46.1647 47.5559L46.8599 49.0972L59.1209 43.5605L59.9681 45.4327L47.4632 50.435L48.1166 51.8892L58.5972 49.2787C58.5972 49.2787 59.1497 49.0799 59.3497 48.9904C61.532 48.0059 63.0295 46.1085 63.585 43.9491C67.1231 36.0774 74.7375 36.9187 76.1648 36.2767C77.7445 35.5625 95.3459 27.6157 95.3459 27.6157L95.3408 27.6042C95.3602 27.5972 95.3806 27.5976 95.401 27.5881C96.8896 26.9144 97.5499 25.1607 96.8779 23.6729C96.2056 22.18 94.4474 21.5157 92.9616 22.1885C92.9372 22.1986 92.9274 22.2119 92.9108 22.2174C92.9108 22.2174 75.6085 30.0263 73.7741 30.8492C72.1215 31.6061 66.568 37.7378 59.1584 35.0275C59.1476 35.0235 59.1272 35.0205 59.1158 35.0187C57.3965 34.3125 55.4287 34.2258 53.572 34.9236C53.4432 34.9713 53.1218 35.1138 53.1218 35.1138L43.4564 41.5515Z" fill="black"/>
</g>
<defs>
<clipPath id="clip0">
<rect width="77.3272" height="77.3272" fill="white"/>
</clipPath>
<clipPath id="clip1">
<rect width="44.5217" height="44.5217" fill="white" transform="translate(82.2646 64.804) rotate(-159.303)"/>
</clipPath>
</defs>
</svg>