<svg width="22" height="22" viewBox="0 0 22 22" fill="none" xmlns="http://www.w3.org/2000/svg">
<path d="M15.0263 13.0548C17.6672 9.32567 16.7839 4.16192 13.0548 1.52169C9.32567 -1.11854 4.16192 -0.235943 1.52169 3.49382C-1.11854 7.22295 -0.235943 12.3861 3.49382 15.0263C6.1555 16.9107 9.67455 17.0558 12.482 15.3979L18.5819 21.4613C19.2406 22.1546 20.3364 22.1824 21.0297 21.5237C21.7231 20.8657 21.7508 19.7699 21.0928 19.0766C21.072 19.0545 21.0518 19.0343 21.0297 19.0135L15.0263 13.0548ZM8.26895 13.6201C5.32211 13.6207 2.93297 11.2335 2.93107 8.28661C2.93044 5.33977 5.31769 2.95063 8.26516 2.94937C11.2082 2.94811 13.5961 5.33157 13.6018 8.27463C13.6068 11.2221 11.2208 13.615 8.27273 13.6201C8.27147 13.6201 8.27084 13.6201 8.26895 13.6201Z" fill="#757575"/>
</svg>